<?xml version="1.0" standalone="no"?><!DOCTYPE svg PUBLIC "-//W3C//DTD SVG 1.1//EN" "http://www.w3.org/Graphics/SVG/1.1/DTD/svg11.dtd"><svg t="1618111522467" class="icon" viewBox="0 0 1024 1024" version="1.1" xmlns="http://www.w3.org/2000/svg" p-id="1922" width="128" height="128" xmlns:xlink="http://www.w3.org/1999/xlink"><defs><style type="text/css"></style></defs><path d="M966.56 404.16a234.4 234.4 0 0 1 0 215.68 512 512 0 0 1-909.12 0 234.4 234.4 0 0 1 0-215.68 512 512 0 0 1 909.12 0z" fill="#CEE6F4" p-id="1923"></path><path d="M966.56 404.16a234.4 234.4 0 0 1 0 215.68 512 512 0 0 1-909.12 0 234.4 234.4 0 0 1 0-215.68 512 512 0 0 1 909.12 0z" fill="#0A2872" p-id="1924"></path><path d="M512 224c197.76 0 369.28 84.16 454.56 208a137.28 137.28 0 0 1 0 161.6c-85.28 123.04-256 208-454.56 208" fill="#CEE6F4" p-id="1925"></path><path d="M512 800C314.24 800 142.72 715.84 57.44 592a137.28 137.28 0 0 1 0-161.6C142.72 308.16 314.24 224 512 224" fill="#CEE6F4" p-id="1926"></path><path d="M966.56 432C881.28 308.16 709.76 224 512 224S142.72 308.16 57.44 432a137.28 137.28 0 0 0 0 161.6C142.72 715.84 314.24 800 512 800s369.28-84.16 454.56-208a137.28 137.28 0 0 0 0-160z" fill="#ACD5EA" p-id="1927"></path><path d="M890.24 444.8C819.2 342.4 676.48 272 512 272S204.8 342.4 133.76 444.8a114.88 114.88 0 0 0 0 134.4C204.8 681.6 347.52 752 512 752s307.2-70.4 378.24-172.8a114.88 114.88 0 0 0 0-134.4z" fill="#CEE6F4" p-id="1928"></path><path d="M512 512m-224 0a224 224 0 1 0 448 0 224 224 0 1 0-448 0Z" fill="#1B45AF" p-id="1929"></path><path d="M624 512a112 112 0 1 1-112-112h2.88a43.52 43.52 0 0 0-2.88 16 48 48 0 0 0 87.84 26.88A108.96 108.96 0 0 1 624 512z" fill="#5EA2CC" p-id="1930"></path><path d="M608 416a48 48 0 0 1-8.16 26.72A48 48 0 0 1 512 416a43.52 43.52 0 0 1 2.88-16A48 48 0 0 1 608 416z" fill="#CEE6F4" p-id="1931"></path><path d="M512 912A526.88 526.88 0 0 1 43.2 627.2a250.4 250.4 0 0 1 0-230.4A532.64 532.64 0 0 1 231.52 192a16 16 0 0 1 16.96 27.2 498.24 498.24 0 0 0-176 192 217.44 217.44 0 0 0 0 200.96 496 496 0 0 0 880 0 217.44 217.44 0 0 0 0-200.96 496 496 0 0 0-657.28-217.6 16 16 0 0 1-14.08-28.8A528 528 0 0 1 980.8 396.8a250.4 250.4 0 0 1 0 230.4A526.88 526.88 0 0 1 512 912z" fill="#0D182D" p-id="1932"></path><path d="M512 912A526.88 526.88 0 0 1 43.2 627.2a250.4 250.4 0 0 1 0-230.4A532.64 532.64 0 0 1 231.52 192a16 16 0 0 1 16.96 27.2 498.24 498.24 0 0 0-176 192 217.44 217.44 0 0 0 0 200.96 496 496 0 0 0 880 0 217.44 217.44 0 0 0 0-200.96 496 496 0 0 0-657.28-217.6 16 16 0 0 1-14.08-28.8A528 528 0 0 1 980.8 396.8a250.4 250.4 0 0 1 0 230.4A526.88 526.88 0 0 1 512 912z" fill="#0D182D" p-id="1933"></path><path d="M512 816a16 16 0 0 1 0-32c186.72 0 355.84-76.8 441.44-200.32a121.92 121.92 0 0 0 0-144C867.84 316.8 698.72 240 512 240a16 16 0 0 1 0-32c196.96 0 376.16 82.08 467.68 214.08a152.64 152.64 0 0 1 0 179.84C888.16 733.92 708.96 816 512 816z" fill="#0D182D" p-id="1934"></path><path d="M240 757.28a16 16 0 0 1-6.88-1.6 471.68 471.68 0 0 1-188.8-153.76 154.24 154.24 0 0 1 0-179.84C135.84 290.08 315.04 208 512 208a16 16 0 0 1 0 32C325.44 240 156.16 316.8 70.56 440.32a121.44 121.44 0 0 0 0 144 441.28 441.28 0 0 0 176 144 16 16 0 0 1-6.88 30.4zM512 816a663.2 663.2 0 0 1-229.44-39.68 16 16 0 0 1 10.88-30.08A632 632 0 0 0 512 784a16 16 0 0 1 0 32z" fill="#0D182D" p-id="1935"></path><path d="M512 816a16 16 0 0 1 0-32c186.72 0 355.84-76.8 441.44-200.32a121.92 121.92 0 0 0 0-144C867.84 316.8 698.72 240 512 240a16 16 0 0 1 0-32c196.96 0 376.16 82.08 467.68 214.08a152.64 152.64 0 0 1 0 179.84C888.16 733.92 708.96 816 512 816z" fill="#0D182D" p-id="1936"></path><path d="M240 757.28a16 16 0 0 1-6.88-1.6 471.68 471.68 0 0 1-188.8-153.76 154.24 154.24 0 0 1 0-179.84C135.84 290.08 315.04 208 512 208a16 16 0 0 1 0 32C325.44 240 156.16 316.8 70.56 440.32a121.44 121.44 0 0 0 0 144 441.28 441.28 0 0 0 176 144 16 16 0 0 1-6.88 30.4zM512 816a663.2 663.2 0 0 1-229.44-39.68 16 16 0 0 1 10.88-30.08A632 632 0 0 0 512 784a16 16 0 0 1 0 32z" fill="#0D182D" p-id="1937"></path><path d="M512 752a240 240 0 1 1 208-120 16 16 0 0 1-27.52-16 209.44 209.44 0 1 0-34.72 44.48 16 16 0 1 1 22.4 23.04A240 240 0 0 1 512 752z" fill="#0D182D" p-id="1938"></path><path d="M512 640a128 128 0 0 1-126.56-109.76 16 16 0 1 1 32-4.48A96 96 0 0 0 608 512a94.08 94.08 0 0 0-10.72-44A64 64 0 0 1 496 417.28a96 96 0 0 0-76 67.36 16 16 0 1 1-30.72-9.28A128 128 0 0 1 512 384a31.04 31.04 0 0 1 5.44 0 16 16 0 0 1 11.36 7.84 16 16 0 0 1 0.96 13.76A29.6 29.6 0 0 0 528 416a32 32 0 0 0 58.56 17.92 16 16 0 0 1 12.64-7.04 16 16 0 0 1 13.12 5.92A125.28 125.28 0 0 1 640 512a128 128 0 0 1-128 128z" fill="#0D182D" p-id="1939"></path><path d="M560 480a64 64 0 0 1-64-64 57.6 57.6 0 0 1 4-21.6A64 64 0 0 1 560 352a64 64 0 0 1 54.08 98.24l-0.96 1.6A64 64 0 0 1 560 480z m0-96a32 32 0 0 0-29.92 21.28A28.96 28.96 0 0 0 528 416a32 32 0 0 0 57.92 18.88v-0.96A33.12 33.12 0 0 0 592 416a32 32 0 0 0-32-32z m39.84 58.88z" fill="#0D182D" p-id="1940"></path></svg>